<?xml version="1.0" standalone="no"?><!DOCTYPE svg PUBLIC "-//W3C//DTD SVG 1.1//EN" "http://www.w3.org/Graphics/SVG/1.1/DTD/svg11.dtd"><svg t="1480831120687" class="icon" style="" viewBox="0 0 1289 1024" version="1.1" xmlns="http://www.w3.org/2000/svg" p-id="2826" xmlns:xlink="http://www.w3.org/1999/xlink" width="251.7578125" height="200"><defs><style type="text/css"></style></defs><path d="M271.962477 1023.999981c20.032399-108.332039 39.479621-216.778007 60.55809-324.901178 4.686598-24.02507 4.83505-41.347356-15.913717-60.388924-35.278082-32.379814-50.565194-77.395317-53.03882-124.264745-2.948327-55.690243-0.695653-111.656676-0.695653-169.254355 22.493942 17.099608 46.593238 25.649412 74.165622 21.617039 27.254765-3.997849 48.043235-18.292403 64.752724-41.238606 19.783828 26.883635 45.284788 42.338187 78.351625 42.169021 32.609397-0.16744 57.820357-15.3061 75.940142-40.038906 12.243844 9.93248 24.273641 19.250437 35.628498 29.317559 2.069698 1.834937 2.299281 6.865045 1.867734 10.229384-5.125049 40.07343 5.528977 75.001096 34.21993 103.666156 21.841443 21.825908 48.488591 33.161777 79.587575 33.215289 37.820756 0.074226 75.641511 0.020714 113.462267 0.020714l13.863007 0c-2.635887 35.763141-9.797837 69.235632-28.010835 98.722357-11.435988 18.509902-26.567743 34.887964-41.252415 51.138288-5.071537 5.603203-7.417425 9.878968-6.03475 17.261869 19.999602 106.73359 39.790335 213.513788 59.655294 320.281902 2.016186 10.823192 4.180825 21.630848 6.271237 32.447136C640.886601 1023.999981 456.421087 1023.999981 271.962477 1023.999981L271.962477 1023.999981zM271.962477 1023.999981" p-id="2827"></path><path d="M491.895954 0c20.700434 7.41052 38.131469 18.691152 45.871692 40.551583 2.199162 6.210821 3.951242 12.974021 3.978861 19.493829 0.283095 72.049316 0.55238 144.103811 0.020714 216.151401-0.222678 30.094343-23.776499 55.857683-52.325904 59.667377-31.758387 4.241241-60.382019-13.633424-69.18212-44.078183-2.359698-8.164864-3.048446-17.053001-3.081244-25.609709-0.243392-62.998918-0.134643-125.990932-0.127738-188.98985 0-44.287052 10.6523-60.349221 51.198704-77.186449C476.130689 0 484.014185 0 491.895954 0L491.895954 0zM491.895954 0" p-id="2828"></path><path d="M647.974324 0c23.688463 8.677542 42.115509 22.616501 47.989723 48.725079 1.192795 5.320108 1.821127 10.881882 1.828032 16.338359 0.127738 64.959867 0.101845 129.928364 0.074226 194.896862 0 2.31309-0.357321 4.624455-0.612796 7.726413-39.897359 5.732667-70.402534 25.744352-91.030468 61.664576-21.489301-12.770331-33.087551-31.219817-33.29642-55.237982-0.598987-70.469855-0.902796-140.960425 0.081131-211.423375C573.465192 29.426309 593.490686 9.677004 624.32729 0 632.215964 0 640.097733 0 647.974324 0L647.974324 0zM647.974324 0" p-id="2829"></path><path d="M804.059599 0c9.744325 5.57731 20.477756 9.960099 29.008571 17.013298 13.276104 10.956108 20.363827 26.289827 20.444958 43.572411 0.329702 68.110158 0.10875 136.213411 0.053512 204.316664 0 0.735356-0.417737 1.463807-0.687022 2.359698l-124.420102 0 0-13.586817L728.459516 76.525319c0-44.024672 11.4895-60.94303 51.954774-76.525319L804.059599 0 804.059599 0zM804.059599 0" p-id="2830"></path><path d="M1288.860925 111.150903c-1.807318 8.334031-3.473088 16.707763-5.447846 25.002092-13.70765 57.497561-52.277571 91.872847-112.580186 100.239675-9.278255 1.289462-18.63764 2.011008-29.365892 3.143386-1.67958-22.043407 1.241128-42.414139 6.519808-62.446538 15.285385-57.929107 56.511908-85.176968 112.721733-94.144509 9.28516-1.477616 18.765378-1.719282 28.159287-2.535769C1288.860925 90.652433 1288.860925 100.900805 1288.860925 111.150903L1288.860925 111.150903zM1288.860925 111.150903" p-id="2831"></path><path d="M1288.860925 416.219919c-89.343983 5.941535-165.261684-75.149548-146.482497-156.461584 77.880376-0.243392 128.338546 38.298909 141.723399 105.107522 1.538033 7.667722 3.169279 15.313004 4.760824 22.973822L1288.862651 416.219919 1288.860925 416.219919zM1288.860925 416.219919" p-id="2832"></path><path d="M0 234.121007c59.377378-0.188154 118.756482-0.403928 178.13386-0.579999 14.512054-0.046607 29.022381-0.013809 44.504551-0.013809l0 31.342376L0 264.869575C0 254.619477 0 244.371105 0 234.121007L0 234.121007zM0 234.121007" p-id="2833"></path><path d="M771.909367 473.158195c-20.477756 0-40.962416 0.074226-61.441898-0.013809-48.68365-0.208869-86.369763-36.769508-87.805951-85.109647-1.396485-46.917761 34.894869-87.44863 82.527271-89.086781 45.245086-1.550116 90.631719-1.691663 135.85609 0.060417 48.885614 1.895353 83.402448 42.345092 81.508821 91.986775-1.760711 45.966632-39.681585 81.892034-86.835834 82.142331C814.449518 473.251409 793.182895 473.158195 771.909367 473.158195L771.909367 473.158195zM771.909367 473.158195" p-id="2834"></path><path d="M261.686487 201.977681c0-22.839179-0.215773-45.676632 0.046607-68.508907 0.438451-37.475518 26.702386-65.054807 61.813028-65.291295 35.561177-0.234761 62.627788 27.593098 62.890168 65.47427 0.317618 46.458595 0.459166 92.91719-0.067321 139.375785-0.378035 33.141063-23.923225 59.81583-54.172924 62.998918-32.521362 3.419576-60.523566-15.521873-68.467478-46.843535-1.619163-6.39207-1.893627-13.234675-1.960948-19.877043C261.538034 246.858541 261.679582 224.418111 261.686487 201.977681L261.686487 201.977681zM261.686487 201.977681" p-id="2835"></path><path d="M987.77077 215.086344c-6.02094-98.7845 49.324065-157.347117 146.42208-157.859795 0.38494 40.465274-5.408144 79.183647-32.386719 111.137093C1072.205477 203.427678 1031.215442 212.409028 987.77077 215.086344L987.77077 215.086344zM987.77077 215.086344" p-id="2836"></path><path d="M987.641305 284.32888c96.511111-1.902258 151.507427 61.144994 145.391547 155.619204C1037.957928 441.741593 981.849948 380.78648 987.641305 284.32888L987.641305 284.32888zM987.641305 284.32888" p-id="2837"></path><path d="M871.764103 263.65434l0-29.391785 236.675764 0 0 29.391785L871.764103 263.65434 871.764103 263.65434zM871.764103 263.65434" p-id="2838"></path></svg>