<?xml version="1.0" standalone="no"?><!DOCTYPE svg PUBLIC "-//W3C//DTD SVG 1.1//EN" "http://www.w3.org/Graphics/SVG/1.1/DTD/svg11.dtd"><svg t="1480831155097" class="icon" style="" viewBox="0 0 1024 1024" version="1.1" xmlns="http://www.w3.org/2000/svg" p-id="3542" xmlns:xlink="http://www.w3.org/1999/xlink" width="200" height="200"><defs><style type="text/css"></style></defs><path d="M945.6 485.376 545.312 78.176c-17.632-17.92-48.48-17.92-65.984 0l-400 406.176c-14.208 13.536-18.4 34.304-10.624 53.12 7.808 17.92 24.256 28.992 42.944 28.992l42.976 0c12.256 0 22.24 10.144 22.24 22.624l0 354.336c0 26.368 20.992 47.776 46.816 47.776l162.784 0c25.824 0 46.816-21.408 46.816-47.776l0-256.672c0-12.448 9.984-22.592 22.208-22.592l114.88 0c12.224 0 22.208 10.144 22.208 22.592l0 256.672c0 26.368 20.992 47.776 46.848 47.776l162.784 0c26.208 0 47.552-21.408 47.552-47.776L849.76 589.824c0-7.072 1.728-11.616 6.24-16.192 4.16-4.256 9.536-6.368 15.936-6.368l40.192 0c18.688 0 35.136-11.136 43.072-29.248C962.848 519.808 959.072 499.2 945.6 485.376z" p-id="3543"></path></svg>